<mxfile host="app.diagrams.net" modified="2023-06-20T08:31:21.213Z" agent="Mozilla/5.0 (Windows NT 10.0; Win64; x64) AppleWebKit/537.36 (KHTML, like Gecko) Chrome/114.0.0.0 Safari/537.36" etag="Kj7gloXoR4uUH4m0q-jx" version="21.5.0" type="device">
  <diagram name="Page-1" id="rkBPCHqNPoGSgv-58eLR">
    <mxGraphModel dx="1050" dy="592" grid="1" gridSize="10" guides="1" tooltips="1" connect="1" arrows="1" fold="1" page="1" pageScale="1" pageWidth="850" pageHeight="1100" math="0" shadow="0">
      <root>
        <mxCell id="0" />
        <mxCell id="1" parent="0" />
        <mxCell id="A8EQv-taFu3Usja1ThjK-38" style="edgeStyle=orthogonalEdgeStyle;rounded=0;orthogonalLoop=1;jettySize=auto;html=1;exitX=0.5;exitY=1;exitDx=0;exitDy=0;" edge="1" parent="1" source="A8EQv-taFu3Usja1ThjK-1">
          <mxGeometry relative="1" as="geometry">
            <mxPoint x="250" y="245" as="targetPoint" />
          </mxGeometry>
        </mxCell>
        <mxCell id="A8EQv-taFu3Usja1ThjK-1" value="DEPARTMENT" style="rounded=0;whiteSpace=wrap;html=1;" vertex="1" parent="1">
          <mxGeometry x="195" y="215" width="100" height="30" as="geometry" />
        </mxCell>
        <mxCell id="A8EQv-taFu3Usja1ThjK-2" value="NUMBER" style="ellipse;whiteSpace=wrap;html=1;" vertex="1" parent="1">
          <mxGeometry x="70" y="150" width="80" height="30" as="geometry" />
        </mxCell>
        <mxCell id="A8EQv-taFu3Usja1ThjK-3" value="NAME" style="ellipse;whiteSpace=wrap;html=1;" vertex="1" parent="1">
          <mxGeometry x="190" y="125" width="80" height="35" as="geometry" />
        </mxCell>
        <mxCell id="A8EQv-taFu3Usja1ThjK-4" value="CONTROLS" style="rhombus;whiteSpace=wrap;html=1;" vertex="1" parent="1">
          <mxGeometry x="210" y="300" width="80" height="80" as="geometry" />
        </mxCell>
        <mxCell id="A8EQv-taFu3Usja1ThjK-5" value="PROJECT" style="rounded=0;whiteSpace=wrap;html=1;" vertex="1" parent="1">
          <mxGeometry x="190" y="430" width="110" height="30" as="geometry" />
        </mxCell>
        <mxCell id="A8EQv-taFu3Usja1ThjK-6" value="has" style="rhombus;whiteSpace=wrap;html=1;" vertex="1" parent="1">
          <mxGeometry x="360" y="205" width="60" height="50" as="geometry" />
        </mxCell>
        <mxCell id="A8EQv-taFu3Usja1ThjK-7" value="EMPLOYEE" style="rounded=0;whiteSpace=wrap;html=1;" vertex="1" parent="1">
          <mxGeometry x="520" y="210" width="100" height="40" as="geometry" />
        </mxCell>
        <mxCell id="A8EQv-taFu3Usja1ThjK-10" style="edgeStyle=orthogonalEdgeStyle;rounded=0;orthogonalLoop=1;jettySize=auto;html=1;exitX=1;exitY=0.5;exitDx=0;exitDy=0;entryX=1;entryY=0.5;entryDx=0;entryDy=0;" edge="1" parent="1" source="A8EQv-taFu3Usja1ThjK-8" target="A8EQv-taFu3Usja1ThjK-9">
          <mxGeometry relative="1" as="geometry" />
        </mxCell>
        <mxCell id="A8EQv-taFu3Usja1ThjK-8" value="" style="rhombus;whiteSpace=wrap;html=1;" vertex="1" parent="1">
          <mxGeometry x="530" y="290" width="80" height="80" as="geometry" />
        </mxCell>
        <mxCell id="A8EQv-taFu3Usja1ThjK-9" value="&amp;nbsp;DEPEND" style="rhombus;whiteSpace=wrap;html=1;" vertex="1" parent="1">
          <mxGeometry x="540" y="300" width="60" height="60" as="geometry" />
        </mxCell>
        <mxCell id="A8EQv-taFu3Usja1ThjK-11" value="" style="rounded=0;whiteSpace=wrap;html=1;" vertex="1" parent="1">
          <mxGeometry x="520" y="415" width="100" height="60" as="geometry" />
        </mxCell>
        <mxCell id="A8EQv-taFu3Usja1ThjK-13" value="DEPENDENS" style="rounded=0;whiteSpace=wrap;html=1;" vertex="1" parent="1">
          <mxGeometry x="530" y="425" width="80" height="40" as="geometry" />
        </mxCell>
        <mxCell id="A8EQv-taFu3Usja1ThjK-14" value="BIRTHDAY" style="ellipse;whiteSpace=wrap;html=1;" vertex="1" parent="1">
          <mxGeometry x="680" y="390" width="110" height="35" as="geometry" />
        </mxCell>
        <mxCell id="A8EQv-taFu3Usja1ThjK-15" value="SEX" style="ellipse;whiteSpace=wrap;html=1;" vertex="1" parent="1">
          <mxGeometry x="670" y="450" width="110" height="30" as="geometry" />
        </mxCell>
        <mxCell id="A8EQv-taFu3Usja1ThjK-16" value="NAME" style="ellipse;whiteSpace=wrap;html=1;" vertex="1" parent="1">
          <mxGeometry x="550" y="510" width="100" height="20" as="geometry" />
        </mxCell>
        <mxCell id="A8EQv-taFu3Usja1ThjK-18" value="ADDRESS" style="ellipse;whiteSpace=wrap;html=1;" vertex="1" parent="1">
          <mxGeometry x="660" y="132.5" width="100" height="40" as="geometry" />
        </mxCell>
        <mxCell id="A8EQv-taFu3Usja1ThjK-19" value="SEX" style="ellipse;whiteSpace=wrap;html=1;" vertex="1" parent="1">
          <mxGeometry x="670" y="210" width="100" height="30" as="geometry" />
        </mxCell>
        <mxCell id="A8EQv-taFu3Usja1ThjK-20" value="SALARY" style="ellipse;whiteSpace=wrap;html=1;" vertex="1" parent="1">
          <mxGeometry x="550" y="120" width="90" height="40" as="geometry" />
        </mxCell>
        <mxCell id="A8EQv-taFu3Usja1ThjK-21" value="BIRTHDAY" style="ellipse;whiteSpace=wrap;html=1;" vertex="1" parent="1">
          <mxGeometry x="650" y="260" width="90" height="30" as="geometry" />
        </mxCell>
        <mxCell id="A8EQv-taFu3Usja1ThjK-22" value="SOCIAL SECURITY NUMBER" style="ellipse;whiteSpace=wrap;html=1;" vertex="1" parent="1">
          <mxGeometry x="470" y="141.25" width="80" height="47.5" as="geometry" />
        </mxCell>
        <mxCell id="A8EQv-taFu3Usja1ThjK-24" value="START DATE" style="ellipse;whiteSpace=wrap;html=1;" vertex="1" parent="1">
          <mxGeometry x="335" y="120" width="110" height="30" as="geometry" />
        </mxCell>
        <mxCell id="A8EQv-taFu3Usja1ThjK-25" value="WORK" style="rhombus;whiteSpace=wrap;html=1;direction=west;" vertex="1" parent="1">
          <mxGeometry x="375" y="330" width="70" height="50" as="geometry" />
        </mxCell>
        <mxCell id="A8EQv-taFu3Usja1ThjK-26" value="NUMBER" style="ellipse;whiteSpace=wrap;html=1;" vertex="1" parent="1">
          <mxGeometry x="70" y="495" width="90" height="35" as="geometry" />
        </mxCell>
        <mxCell id="A8EQv-taFu3Usja1ThjK-27" value="NAME" style="ellipse;whiteSpace=wrap;html=1;" vertex="1" parent="1">
          <mxGeometry x="150" y="533" width="95" height="35" as="geometry" />
        </mxCell>
        <mxCell id="A8EQv-taFu3Usja1ThjK-28" value="" style="endArrow=none;html=1;rounded=0;exitX=1;exitY=0.5;exitDx=0;exitDy=0;" edge="1" parent="1" source="A8EQv-taFu3Usja1ThjK-1">
          <mxGeometry width="50" height="50" relative="1" as="geometry">
            <mxPoint x="320" y="280" as="sourcePoint" />
            <mxPoint x="360" y="230" as="targetPoint" />
          </mxGeometry>
        </mxCell>
        <mxCell id="A8EQv-taFu3Usja1ThjK-29" value="" style="endArrow=none;html=1;rounded=0;exitX=1;exitY=0.5;exitDx=0;exitDy=0;" edge="1" parent="1" source="A8EQv-taFu3Usja1ThjK-6">
          <mxGeometry width="50" height="50" relative="1" as="geometry">
            <mxPoint x="470" y="280" as="sourcePoint" />
            <mxPoint x="520" y="230" as="targetPoint" />
          </mxGeometry>
        </mxCell>
        <mxCell id="A8EQv-taFu3Usja1ThjK-31" value="" style="endArrow=none;html=1;rounded=0;exitX=0.5;exitY=0;exitDx=0;exitDy=0;" edge="1" parent="1" source="A8EQv-taFu3Usja1ThjK-11">
          <mxGeometry width="50" height="50" relative="1" as="geometry">
            <mxPoint x="520" y="420" as="sourcePoint" />
            <mxPoint x="570" y="370" as="targetPoint" />
          </mxGeometry>
        </mxCell>
        <mxCell id="A8EQv-taFu3Usja1ThjK-32" value="" style="endArrow=none;html=1;rounded=0;exitX=1;exitY=1;exitDx=0;exitDy=0;entryX=0;entryY=0;entryDx=0;entryDy=0;" edge="1" parent="1" source="A8EQv-taFu3Usja1ThjK-2" target="A8EQv-taFu3Usja1ThjK-1">
          <mxGeometry width="50" height="50" relative="1" as="geometry">
            <mxPoint x="140" y="270" as="sourcePoint" />
            <mxPoint x="190" y="220" as="targetPoint" />
          </mxGeometry>
        </mxCell>
        <mxCell id="A8EQv-taFu3Usja1ThjK-33" value="" style="endArrow=none;html=1;rounded=0;exitX=0.39;exitY=0.007;exitDx=0;exitDy=0;exitPerimeter=0;" edge="1" parent="1" source="A8EQv-taFu3Usja1ThjK-1">
          <mxGeometry width="50" height="50" relative="1" as="geometry">
            <mxPoint x="230" y="210" as="sourcePoint" />
            <mxPoint x="230" y="160" as="targetPoint" />
          </mxGeometry>
        </mxCell>
        <mxCell id="A8EQv-taFu3Usja1ThjK-35" value="" style="endArrow=none;html=1;rounded=0;exitX=1;exitY=0;exitDx=0;exitDy=0;entryX=1;entryY=0;entryDx=0;entryDy=0;" edge="1" parent="1" source="A8EQv-taFu3Usja1ThjK-5" target="A8EQv-taFu3Usja1ThjK-25">
          <mxGeometry width="50" height="50" relative="1" as="geometry">
            <mxPoint x="340" y="420" as="sourcePoint" />
            <mxPoint x="390" y="370" as="targetPoint" />
          </mxGeometry>
        </mxCell>
        <mxCell id="A8EQv-taFu3Usja1ThjK-36" value="" style="endArrow=none;html=1;rounded=0;exitX=0;exitY=1;exitDx=0;exitDy=0;" edge="1" parent="1" source="A8EQv-taFu3Usja1ThjK-25">
          <mxGeometry width="50" height="50" relative="1" as="geometry">
            <mxPoint x="470" y="300" as="sourcePoint" />
            <mxPoint x="520" y="250" as="targetPoint" />
          </mxGeometry>
        </mxCell>
        <mxCell id="A8EQv-taFu3Usja1ThjK-37" value="" style="endArrow=none;html=1;rounded=0;exitX=0.5;exitY=0;exitDx=0;exitDy=0;entryX=0.5;entryY=1;entryDx=0;entryDy=0;" edge="1" parent="1" source="A8EQv-taFu3Usja1ThjK-4" target="A8EQv-taFu3Usja1ThjK-1">
          <mxGeometry width="50" height="50" relative="1" as="geometry">
            <mxPoint x="200" y="300" as="sourcePoint" />
            <mxPoint x="250" y="250" as="targetPoint" />
          </mxGeometry>
        </mxCell>
        <mxCell id="A8EQv-taFu3Usja1ThjK-39" value="LOCATION" style="ellipse;whiteSpace=wrap;html=1;" vertex="1" parent="1">
          <mxGeometry x="270" y="524" width="90" height="52" as="geometry" />
        </mxCell>
        <mxCell id="A8EQv-taFu3Usja1ThjK-40" value="" style="endArrow=none;html=1;rounded=0;exitX=1;exitY=0;exitDx=0;exitDy=0;" edge="1" parent="1" source="A8EQv-taFu3Usja1ThjK-26">
          <mxGeometry width="50" height="50" relative="1" as="geometry">
            <mxPoint x="140" y="510" as="sourcePoint" />
            <mxPoint x="190" y="460" as="targetPoint" />
          </mxGeometry>
        </mxCell>
        <mxCell id="A8EQv-taFu3Usja1ThjK-41" value="" style="endArrow=none;html=1;rounded=0;exitX=0.632;exitY=0;exitDx=0;exitDy=0;exitPerimeter=0;" edge="1" parent="1" source="A8EQv-taFu3Usja1ThjK-27">
          <mxGeometry width="50" height="50" relative="1" as="geometry">
            <mxPoint x="190" y="510" as="sourcePoint" />
            <mxPoint x="240" y="460" as="targetPoint" />
          </mxGeometry>
        </mxCell>
        <mxCell id="A8EQv-taFu3Usja1ThjK-42" value="" style="endArrow=none;html=1;rounded=0;exitX=0.5;exitY=0;exitDx=0;exitDy=0;" edge="1" parent="1" source="A8EQv-taFu3Usja1ThjK-39">
          <mxGeometry width="50" height="50" relative="1" as="geometry">
            <mxPoint x="250" y="510" as="sourcePoint" />
            <mxPoint x="300" y="460" as="targetPoint" />
          </mxGeometry>
        </mxCell>
        <mxCell id="A8EQv-taFu3Usja1ThjK-43" value="" style="endArrow=none;html=1;rounded=0;exitX=0.5;exitY=0;exitDx=0;exitDy=0;" edge="1" parent="1" source="A8EQv-taFu3Usja1ThjK-5">
          <mxGeometry width="50" height="50" relative="1" as="geometry">
            <mxPoint x="200" y="430" as="sourcePoint" />
            <mxPoint x="250" y="380" as="targetPoint" />
          </mxGeometry>
        </mxCell>
        <mxCell id="A8EQv-taFu3Usja1ThjK-44" value="" style="endArrow=none;html=1;rounded=0;exitX=0.5;exitY=0;exitDx=0;exitDy=0;" edge="1" parent="1" source="A8EQv-taFu3Usja1ThjK-6">
          <mxGeometry width="50" height="50" relative="1" as="geometry">
            <mxPoint x="340" y="200" as="sourcePoint" />
            <mxPoint x="390" y="150" as="targetPoint" />
          </mxGeometry>
        </mxCell>
        <mxCell id="A8EQv-taFu3Usja1ThjK-45" value="HOURS" style="ellipse;whiteSpace=wrap;html=1;" vertex="1" parent="1">
          <mxGeometry x="335" y="280" width="55" height="30" as="geometry" />
        </mxCell>
        <mxCell id="A8EQv-taFu3Usja1ThjK-47" value="" style="endArrow=none;html=1;rounded=0;entryX=0.5;entryY=1;entryDx=0;entryDy=0;" edge="1" parent="1" source="A8EQv-taFu3Usja1ThjK-25" target="A8EQv-taFu3Usja1ThjK-45">
          <mxGeometry width="50" height="50" relative="1" as="geometry">
            <mxPoint x="330" y="360" as="sourcePoint" />
            <mxPoint x="380" y="310" as="targetPoint" />
          </mxGeometry>
        </mxCell>
        <mxCell id="A8EQv-taFu3Usja1ThjK-48" value="" style="endArrow=none;html=1;rounded=0;entryX=0.5;entryY=1;entryDx=0;entryDy=0;exitX=0.3;exitY=0;exitDx=0;exitDy=0;exitPerimeter=0;" edge="1" parent="1" source="A8EQv-taFu3Usja1ThjK-16" target="A8EQv-taFu3Usja1ThjK-11">
          <mxGeometry width="50" height="50" relative="1" as="geometry">
            <mxPoint x="570" y="500" as="sourcePoint" />
            <mxPoint x="620" y="465" as="targetPoint" />
          </mxGeometry>
        </mxCell>
        <mxCell id="A8EQv-taFu3Usja1ThjK-49" value="" style="endArrow=none;html=1;rounded=0;exitX=1;exitY=0.75;exitDx=0;exitDy=0;entryX=0;entryY=0.5;entryDx=0;entryDy=0;" edge="1" parent="1" source="A8EQv-taFu3Usja1ThjK-11" target="A8EQv-taFu3Usja1ThjK-15">
          <mxGeometry width="50" height="50" relative="1" as="geometry">
            <mxPoint x="620" y="510" as="sourcePoint" />
            <mxPoint x="670" y="460" as="targetPoint" />
          </mxGeometry>
        </mxCell>
        <mxCell id="A8EQv-taFu3Usja1ThjK-51" value="" style="endArrow=none;html=1;rounded=0;exitX=1;exitY=0.25;exitDx=0;exitDy=0;" edge="1" parent="1" source="A8EQv-taFu3Usja1ThjK-11">
          <mxGeometry width="50" height="50" relative="1" as="geometry">
            <mxPoint x="630" y="460" as="sourcePoint" />
            <mxPoint x="680" y="410" as="targetPoint" />
          </mxGeometry>
        </mxCell>
        <mxCell id="A8EQv-taFu3Usja1ThjK-52" value="" style="endArrow=none;html=1;rounded=0;entryX=0.5;entryY=1;entryDx=0;entryDy=0;exitX=0.596;exitY=-0.03;exitDx=0;exitDy=0;exitPerimeter=0;" edge="1" parent="1" source="A8EQv-taFu3Usja1ThjK-7" target="A8EQv-taFu3Usja1ThjK-20">
          <mxGeometry width="50" height="50" relative="1" as="geometry">
            <mxPoint x="540" y="230" as="sourcePoint" />
            <mxPoint x="590" y="180" as="targetPoint" />
          </mxGeometry>
        </mxCell>
        <mxCell id="A8EQv-taFu3Usja1ThjK-53" value="" style="endArrow=none;html=1;rounded=0;entryX=0.076;entryY=0.708;entryDx=0;entryDy=0;entryPerimeter=0;" edge="1" parent="1" target="A8EQv-taFu3Usja1ThjK-18">
          <mxGeometry width="50" height="50" relative="1" as="geometry">
            <mxPoint x="620" y="210" as="sourcePoint" />
            <mxPoint x="660" y="170" as="targetPoint" />
          </mxGeometry>
        </mxCell>
        <mxCell id="A8EQv-taFu3Usja1ThjK-54" value="" style="endArrow=none;html=1;rounded=0;exitX=1;exitY=0.5;exitDx=0;exitDy=0;entryX=0;entryY=0.5;entryDx=0;entryDy=0;" edge="1" parent="1" source="A8EQv-taFu3Usja1ThjK-7" target="A8EQv-taFu3Usja1ThjK-19">
          <mxGeometry width="50" height="50" relative="1" as="geometry">
            <mxPoint x="620" y="280" as="sourcePoint" />
            <mxPoint x="670" y="230" as="targetPoint" />
          </mxGeometry>
        </mxCell>
        <mxCell id="A8EQv-taFu3Usja1ThjK-55" value="" style="endArrow=none;html=1;rounded=0;entryX=1;entryY=1;entryDx=0;entryDy=0;exitX=0;exitY=0.5;exitDx=0;exitDy=0;" edge="1" parent="1" source="A8EQv-taFu3Usja1ThjK-21" target="A8EQv-taFu3Usja1ThjK-7">
          <mxGeometry width="50" height="50" relative="1" as="geometry">
            <mxPoint x="579.2893218813452" y="325" as="sourcePoint" />
            <mxPoint x="579.2893218813452" y="275" as="targetPoint" />
          </mxGeometry>
        </mxCell>
        <mxCell id="A8EQv-taFu3Usja1ThjK-56" value="SUPERVISED BY" style="rhombus;whiteSpace=wrap;html=1;" vertex="1" parent="1">
          <mxGeometry x="490" y="10" width="110" height="60" as="geometry" />
        </mxCell>
        <mxCell id="A8EQv-taFu3Usja1ThjK-59" value="" style="endArrow=none;html=1;rounded=0;entryX=1;entryY=0.5;entryDx=0;entryDy=0;" edge="1" parent="1" target="A8EQv-taFu3Usja1ThjK-56">
          <mxGeometry width="50" height="50" relative="1" as="geometry">
            <mxPoint x="800" y="40" as="sourcePoint" />
            <mxPoint x="670" y="170" as="targetPoint" />
          </mxGeometry>
        </mxCell>
        <mxCell id="A8EQv-taFu3Usja1ThjK-60" value="" style="endArrow=none;html=1;rounded=0;" edge="1" parent="1">
          <mxGeometry width="50" height="50" relative="1" as="geometry">
            <mxPoint x="800" y="180" as="sourcePoint" />
            <mxPoint x="800" y="40" as="targetPoint" />
          </mxGeometry>
        </mxCell>
        <mxCell id="A8EQv-taFu3Usja1ThjK-61" value="" style="endArrow=none;html=1;rounded=0;" edge="1" parent="1">
          <mxGeometry width="50" height="50" relative="1" as="geometry">
            <mxPoint x="620" y="220" as="sourcePoint" />
            <mxPoint x="800" y="180" as="targetPoint" />
          </mxGeometry>
        </mxCell>
        <mxCell id="A8EQv-taFu3Usja1ThjK-62" value="" style="endArrow=none;html=1;rounded=0;exitX=0.5;exitY=0;exitDx=0;exitDy=0;entryX=0;entryY=1;entryDx=0;entryDy=0;" edge="1" parent="1" source="A8EQv-taFu3Usja1ThjK-7" target="A8EQv-taFu3Usja1ThjK-56">
          <mxGeometry width="50" height="50" relative="1" as="geometry">
            <mxPoint x="470" y="110" as="sourcePoint" />
            <mxPoint x="520" y="60" as="targetPoint" />
          </mxGeometry>
        </mxCell>
        <mxCell id="A8EQv-taFu3Usja1ThjK-63" value="1" style="text;html=1;align=center;verticalAlign=middle;resizable=0;points=[];autosize=1;strokeColor=none;fillColor=none;" vertex="1" parent="1">
          <mxGeometry x="285" y="208" width="30" height="30" as="geometry" />
        </mxCell>
        <mxCell id="A8EQv-taFu3Usja1ThjK-64" value="M" style="text;html=1;align=center;verticalAlign=middle;resizable=0;points=[];autosize=1;strokeColor=none;fillColor=none;" vertex="1" parent="1">
          <mxGeometry x="495" y="208" width="30" height="30" as="geometry" />
        </mxCell>
        <mxCell id="A8EQv-taFu3Usja1ThjK-65" value="1" style="text;html=1;align=center;verticalAlign=middle;resizable=0;points=[];autosize=1;strokeColor=none;fillColor=none;" vertex="1" parent="1">
          <mxGeometry x="545" y="188" width="30" height="30" as="geometry" />
        </mxCell>
        <mxCell id="A8EQv-taFu3Usja1ThjK-69" value="" style="endArrow=none;html=1;rounded=0;entryX=0.5;entryY=1;entryDx=0;entryDy=0;" edge="1" parent="1" source="A8EQv-taFu3Usja1ThjK-8" target="A8EQv-taFu3Usja1ThjK-7">
          <mxGeometry width="50" height="50" relative="1" as="geometry">
            <mxPoint x="530" y="300" as="sourcePoint" />
            <mxPoint x="580" y="250" as="targetPoint" />
          </mxGeometry>
        </mxCell>
        <mxCell id="A8EQv-taFu3Usja1ThjK-70" value="1" style="text;html=1;align=center;verticalAlign=middle;resizable=0;points=[];autosize=1;strokeColor=none;fillColor=none;" vertex="1" parent="1">
          <mxGeometry x="570" y="250" width="30" height="30" as="geometry" />
        </mxCell>
        <mxCell id="A8EQv-taFu3Usja1ThjK-71" value="M" style="text;html=1;align=center;verticalAlign=middle;resizable=0;points=[];autosize=1;strokeColor=none;fillColor=none;" vertex="1" parent="1">
          <mxGeometry x="590" y="392.5" width="30" height="30" as="geometry" />
        </mxCell>
        <mxCell id="A8EQv-taFu3Usja1ThjK-72" value="M" style="text;html=1;align=center;verticalAlign=middle;resizable=0;points=[];autosize=1;strokeColor=none;fillColor=none;" vertex="1" parent="1">
          <mxGeometry x="240" y="408" width="30" height="30" as="geometry" />
        </mxCell>
        <mxCell id="A8EQv-taFu3Usja1ThjK-73" value="1" style="text;html=1;align=center;verticalAlign=middle;resizable=0;points=[];autosize=1;strokeColor=none;fillColor=none;" vertex="1" parent="1">
          <mxGeometry x="240" y="240" width="30" height="30" as="geometry" />
        </mxCell>
        <mxCell id="A8EQv-taFu3Usja1ThjK-74" value="1" style="text;html=1;strokeColor=none;fillColor=none;align=center;verticalAlign=middle;whiteSpace=wrap;rounded=0;" vertex="1" parent="1">
          <mxGeometry x="630" y="188.75" width="40" height="31.25" as="geometry" />
        </mxCell>
      </root>
    </mxGraphModel>
  </diagram>
</mxfile>
